# xmcd
#
# Track frame offsets: 
#        150
#        25434
#        57004
#        87620
#        112251
#        143901
#        182584
#
# Disc length: 2943 seconds
#
# Revision: 1
# Processed by: cddbd v1.5.2PL0 Copyright (c) Steve Scherf et al.
# Submitted via: ExactAudioCopy v0.99pb4
#
DISCID=620b7d07
DTITLE=Trampled Under Foot - Live At Notodden Blues Festival
DYEAR=2010
DGENRE=Blues
TTITLE0=Too Big to Carry
TTITLE1=Mean Old Town
TTITLE2=Fog
TTITLE3=No! I Ain't Gonna Let You Go
TTITLE4=Love My Baby
TTITLE5=Johnny Cheat
TTITLE6=May I Be Excused
EXTD=
EXTT0=
EXTT1=
EXTT2=
EXTT3=
EXTT4=
EXTT5=
EXTT6=
PLAYORDER=
